<?xml version="1.0" standalone="no"?>
<!DOCTYPE svg PUBLIC "-//W3C//DTD SVG 20010904//EN"
 "http://www.w3.org/TR/2001/REC-SVG-20010904/DTD/svg10.dtd">
<svg version="1.0" xmlns="http://www.w3.org/2000/svg"
 width="377.000000pt" height="377.000000pt" viewBox="0 0 377.000000 377.000000"
 preserveAspectRatio="xMidYMid meet">
<metadata>
Created by potrace 1.11, written by Peter Selinger 2001-2013
</metadata>
<g transform="translate(0.000000,377.000000) scale(0.100000,-0.100000)"
fill="#000000" stroke="none">
<path d="M1802 3558 c-66 -94 -196 -290 -297 -448 -71 -112 -95 -150 -119
-192 -16 -27 -31 -48 -36 -48 -4 0 -19 9 -33 20 -14 11 -108 75 -209 142 -368
247 -710 453 -719 435 -4 -7 -10 -34 -14 -62 -5 -27 -9 -54 -11 -60 -3 -13
-62 -376 -70 -430 -3 -22 -7 -51 -9 -65 -4 -25 -19 -142 -30 -232 -3 -26 -8
-73 -10 -105 -3 -32 -7 -69 -10 -83 -2 -14 -7 -61 -10 -105 -3 -44 -8 -96 -10
-115 -19 -158 -27 -711 -12 -870 19 -208 55 -363 109 -478 129 -274 355 -509
616 -641 71 -36 220 -88 278 -97 21 -3 42 -8 46 -10 3 -2 51 -7 105 -10 69 -4
114 -1 150 9 47 13 62 12 135 -4 109 -23 366 -20 483 6 53 11 134 18 240 20
88 1 178 5 200 9 313 52 573 214 772 482 59 79 148 234 174 304 50 132 73 316
73 580 -1 241 -17 517 -49 843 -8 80 -16 150 -20 187 -2 19 -7 60 -10 90 -4
30 -8 66 -10 80 -2 14 -7 50 -10 80 -3 30 -8 62 -10 70 -2 8 -7 39 -10 69 -4
30 -9 63 -11 75 -2 12 -7 41 -10 66 -11 85 -62 379 -69 398 -3 8 -31 -4 -87
-37 -46 -27 -97 -57 -115 -67 -143 -83 -487 -305 -681 -439 -45 -32 -84 -56
-86 -54 -2 2 -32 51 -68 109 -110 178 -280 438 -413 628 l-43 62 -80 -112z
m148 -493 c0 -2 22 -36 48 -77 52 -78 202 -323 244 -398 14 -25 47 -83 75
-130 77 -135 236 -453 292 -586 103 -245 143 -397 142 -542 -3 -383 -234 -750
-561 -888 -41 -17 -89 -34 -105 -38 -17 -3 -41 -9 -55 -12 -14 -3 -67 -8 -118
-11 -359 -20 -694 222 -838 604 -25 66 -28 77 -50 193 -39 204 2 406 153 750
95 216 231 474 394 746 46 76 88 147 94 156 19 33 89 143 152 241 l64 97 35
-51 c18 -28 34 -52 34 -54z m-1198 -136 c126 -81 335 -220 363 -242 5 -4 29
-22 53 -38 l42 -31 -40 -72 c-88 -153 -272 -538 -324 -677 -51 -137 -98 -303
-111 -394 -16 -114 -2 -321 31 -450 46 -176 142 -377 228 -474 l21 -24 -32 17
c-96 48 -239 179 -318 291 -116 163 -163 306 -183 550 -12 158 -5 622 13 785
2 19 7 76 10 125 4 50 9 99 11 110 2 11 6 49 9 86 3 36 7 74 9 85 2 10 7 48
11 84 4 36 9 72 10 80 2 8 11 75 21 148 10 72 21 132 26 132 4 0 72 -41 150
-91z m2428 4 c7 -49 14 -95 15 -103 1 -8 6 -40 10 -70 3 -30 8 -66 10 -80 3
-23 8 -67 20 -170 5 -40 12 -119 20 -205 3 -33 7 -76 10 -95 18 -152 27 -741
12 -855 -3 -27 -9 -75 -13 -105 -8 -65 -48 -208 -70 -253 -90 -177 -209 -316
-362 -419 -69 -48 -81 -48 -45 0 159 205 257 528 246 808 -5 149 -67 372 -166
605 -77 177 -231 486 -298 596 -20 32 -20 32 0 42 11 6 25 17 33 24 7 8 108
76 223 153 116 77 235 156 265 176 30 20 60 37 66 37 6 1 16 -37 24 -86z"/>
</g>
</svg>
